Exact Audio Copy V0.99 prebeta 1 from 25. May 2007

EAC 抓取日志文件从14. 十二月 2010, 22:42

刘秉义 / 20世纪中华歌坛名人百集珍藏版

使用驱动器  ：BENQ    DVD-ROM 16X   Adapter: 0  ID: 1

读取模式     : 保护
使用精确流   : 是
废除音频缓冲 : 是
使用 C2 指针 : 否

读取偏移校正                   : 738
读取 Lead-In 和 Lead-Out       : 否
用静音填充抓取中丢失偏移的采样 : 是
去除首尾静音块                 : 否
已用接口                       : 已安装外部 ASPI 接口

所用输出格式 : 内部 WAV 函数
样本格式     : 44.100 Hz;16 Bit;立体声


被抓轨 CD 的 TOC

     音轨 |   开始   |   长度   | 起始扇区 | 结尾扇区 
    --------------------------------------------------
       1  |  0:00.00 |  6:21.02 |       0  |   28576  
       2  |  6:21.02 |  4:48.65 |   28577  |   50241  
       3  | 11:09.67 |  3:57.18 |   50242  |   68034  
       4  | 15:07.10 |  2:04.57 |   68035  |   77391  
       5  | 17:11.67 |  2:41.40 |   77392  |   89506  
       6  | 19:53.32 |  1:47.18 |   89507  |   97549  
       7  | 21:40.50 |  2:36.12 |   97550  |  109261  
       8  | 24:16.62 |  3:28.15 |  109262  |  124876  
       9  | 27:45.02 |  7:12.55 |  124877  |  157331  
      10  | 34:57.57 |  5:36.55 |  157332  |  182586  
      11  | 40:34.37 |  4:44.18 |  182587  |  203904  
      12  | 45:18.55 |  3:10.07 |  203905  |  218161  
      13  | 48:28.62 |  3:35.65 |  218162  |  234351  
      14  | 52:04.52 |  4:34.00 |  234352  |  254901  


范围状态及错误

已选择范围

     文件名 E:\文件夹\20世纪中华歌坛名人百集珍藏版-刘秉义[lwg188原创]\刘秉义 - 20世纪中华歌坛名人百集珍藏版.wav

     峰值电平 100.0 %
     范围质量 99.9 %
     复制 CRC 7D2B01F3
     复制成功

没有错误发生

状态报告结尾
